<svg width="16" height="17" viewBox="0 0 16 17" fill="none" xmlns="http://www.w3.org/2000/svg">
<path d="M13.2626 7.84771C12.747 6.94311 9.82232 1.72328 9.82232 1.72328C9.78485 1.65563 9.72993 1.59924 9.66325 1.55998C9.59658 1.52071 9.5206 1.5 9.4432 1.5C9.3658 1.5 9.28982 1.52071 9.22315 1.55998C9.15647 1.59924 9.10155 1.65563 9.06408 1.72328L6.46437 6.32851L5.16452 4.04321C5.12705 3.97556 5.07212 3.91917 5.00545 3.8799C4.93878 3.84063 4.86279 3.81992 4.7854 3.81992C4.708 3.81992 4.63201 3.84063 4.56534 3.8799C4.49867 3.91917 4.44374 3.97556 4.40627 4.04321C4.40627 4.04321 2.04054 8.32814 1.61592 9.0726C1.20028 9.73455 0.986498 10.503 1.00066 11.2843C1.00066 13.496 2.6818 15.461 4.75723 15.5H9.44103C11.9541 15.5 13.9992 13.1714 13.9992 10.4966C14.0164 9.5609 13.7605 8.64045 13.2626 7.84771ZM9.00775 14.6344H6.00076C5.48022 14.6189 4.9856 14.404 4.61938 14.0341C4.25316 13.6642 4.04343 13.1678 4.03365 12.6477C4.0302 12.284 4.14415 11.9288 4.35861 11.6349L5.81011 9.3799C5.82975 9.34953 5.8567 9.32455 5.88849 9.30726C5.92028 9.28997 5.9559 9.28091 5.99209 9.28091C6.02829 9.28091 6.06391 9.28997 6.0957 9.30726C6.12749 9.32455 6.15443 9.34953 6.17407 9.3799L6.94532 10.5788V10.5442C7.21829 10.0638 8.77811 7.30668 8.77811 7.30668C8.797 7.27338 8.8244 7.24568 8.85752 7.2264C8.89063 7.20713 8.92827 7.19697 8.96659 7.19697C9.00491 7.19697 9.04255 7.20713 9.07566 7.2264C9.10877 7.24568 9.13617 7.27338 9.15507 7.30668C9.15507 7.30668 10.7149 10.0681 10.9879 10.5442C11.2581 10.9572 11.4012 11.4402 11.3995 11.9335C11.3995 14.6344 9.27639 14.6344 9.00775 14.6344Z" fill="url(#paint0_linear)"/>
<defs>
<linearGradient id="paint0_linear" x1="7.5" y1="1.5" x2="7.5" y2="15.5" gradientUnits="userSpaceOnUse">
<stop stop-color="#EE190B"/>
<stop offset="1" stop-color="#F17D11"/>
</linearGradient>
</defs>
</svg>
