<svg width="40" height="40" viewBox="0 0 40 40" fill="none" xmlns="http://www.w3.org/2000/svg">
<g filter="url(#filter0_d)">
<circle cx="20" cy="18" r="15" fill="url(#paint0_linear)"/>
<path d="M27.905 22.8066H26.3036C26.1943 22.8066 26.0918 22.8544 26.0234 22.9387C25.864 23.1323 25.6931 23.3191 25.5132 23.4968C24.7772 24.2335 23.9054 24.8207 22.946 25.2257C21.952 25.6455 20.8837 25.8609 19.8047 25.859C18.7136 25.859 17.6566 25.6449 16.6634 25.2257C15.704 24.8207 14.8322 24.2335 14.0962 23.4968C13.3589 22.7625 12.771 21.8922 12.365 20.9341C11.9436 19.9409 11.7317 18.8863 11.7317 17.7951C11.7317 16.704 11.9459 15.6493 12.365 14.6561C12.7705 13.6971 13.3536 12.8338 14.0962 12.0935C14.8388 11.3531 15.7022 10.77 16.6634 10.3645C17.6566 9.94538 18.7136 9.73126 19.8047 9.73126C20.8958 9.73126 21.9528 9.94311 22.946 10.3645C23.9072 10.77 24.7706 11.3531 25.5132 12.0935C25.6931 12.2734 25.8617 12.4602 26.0234 12.6516C26.0918 12.7358 26.1966 12.7837 26.3036 12.7837H27.905C28.0485 12.7837 28.1374 12.6242 28.0576 12.5035C26.3105 9.78821 23.2535 7.99092 19.7796 8.00003C14.3217 8.0137 9.94584 12.4443 10.0005 17.8954C10.0552 23.2599 14.4242 27.5902 19.8047 27.5902C23.2694 27.5902 26.3127 25.7952 28.0576 23.0868C28.1351 22.966 28.0485 22.8066 27.905 22.8066ZM29.9301 17.6516L26.6977 15.1003C26.577 15.0047 26.4016 15.0912 26.4016 15.2438V16.9751H19.2489C19.1487 16.9751 19.0667 17.0571 19.0667 17.1573V18.4329C19.0667 18.5332 19.1487 18.6152 19.2489 18.6152H26.4016V20.3464C26.4016 20.499 26.5793 20.5856 26.6977 20.4899L29.9301 17.9386C29.9519 17.9216 29.9695 17.8998 29.9816 17.8749C29.9937 17.8501 30 17.8228 30 17.7951C30 17.7675 29.9937 17.7402 29.9816 17.7153C29.9695 17.6904 29.9519 17.6687 29.9301 17.6516Z" fill="black"/>
</g>
<defs>
<filter id="filter0_d" x="0" y="0" width="40" height="40" filterUnits="userSpaceOnUse" color-interpolation-filters="sRGB">
<feFlood flood-opacity="0" result="BackgroundImageFix"/>
<feColorMatrix in="SourceAlpha" type="matrix" values="0 0 0 0 0 0 0 0 0 0 0 0 0 0 0 0 0 0 127 0" result="hardAlpha"/>
<feOffset dy="2"/>
<feGaussianBlur stdDeviation="2.5"/>
<feColorMatrix type="matrix" values="0 0 0 0 0 0 0 0 0 0 0 0 0 0 0 0 0 0 0.25 0"/>
<feBlend mode="normal" in2="BackgroundImageFix" result="effect1_dropShadow"/>
<feBlend mode="normal" in="SourceGraphic" in2="effect1_dropShadow" result="shape"/>
</filter>
<linearGradient id="paint0_linear" x1="20" y1="3" x2="20" y2="33" gradientUnits="userSpaceOnUse">
<stop stop-color="white"/>
<stop offset="1" stop-color="white" stop-opacity="0.8"/>
</linearGradient>
</defs>
</svg>
