<svg width="40" height="40" viewBox="0 0 40 40" fill="none" xmlns="http://www.w3.org/2000/svg">
<g filter="url(#filter0_d)">
<circle cx="20" cy="18" r="15" fill="url(#paint0_linear)"/>
<path fill-rule="evenodd" clip-rule="evenodd" d="M19.999 9C15.029 9 11 13.029 11 17.999C11 22.969 15.029 26.998 19.999 26.998C24.9272 26.998 28.9301 23.0365 28.9971 18.1243C28.8775 15.0837 27.5044 12.8554 25.8501 11.3072L24.7313 13.2815L21.8044 8.30492L27.5777 8.25843L26.356 10.4144C28.2234 12.0948 29.8332 14.5792 29.9927 17.999H29.998C29.998 18.0365 29.9978 18.0739 29.9974 18.1113C29.9975 18.1141 29.9976 18.1168 29.9977 18.1195L29.9973 18.1195C29.9327 23.5863 25.4811 27.998 19.999 27.998C14.4767 27.998 10 23.5213 10 17.999C10 12.4767 14.4767 8 19.999 8V9ZM21.7879 12.6304C21.0576 12.6304 20.3769 12.9264 19.8159 13.487C19.1787 14.1242 18.8871 14.9076 18.9724 15.7449C19.0364 16.3665 19.3202 16.9932 19.775 17.5538L16.6196 20.7092L16.0481 20.1377C15.7698 19.8581 15.5389 20.0894 15.2602 20.3685L15.2595 20.3693L14.9875 20.6548L14.9708 20.6714C14.699 20.9416 14.483 21.1565 14.7564 21.4299L15.3269 22.0018L14.8787 22.4501C14.8123 22.516 14.7596 22.5945 14.7236 22.6808C14.6877 22.7672 14.6692 22.8599 14.6692 22.9534C14.6692 23.047 14.6877 23.1397 14.7236 23.226C14.7596 23.3124 14.8123 23.3908 14.8787 23.4568C15.1572 23.7349 15.6059 23.7349 15.8853 23.4568L20.8361 18.506C21.3723 18.842 21.9546 19.0227 22.5222 19.0227C23.252 19.0227 23.934 18.7267 24.4946 18.1657C25.1322 17.529 25.4234 16.7455 25.3377 15.9082C25.2611 15.1548 24.8611 14.3966 24.2226 13.759C23.4992 13.0348 22.6353 12.63 21.7879 12.63V12.6304ZM21.8153 13.5279C22.4216 13.5279 23.0514 13.8382 23.5967 14.3849C24.0816 14.868 24.3841 15.4303 24.4402 15.9761C24.4981 16.5436 24.2983 17.0842 23.8553 17.5268C23.4583 17.9228 22.9957 18.1248 22.4952 18.1248C21.8885 18.1248 21.26 17.814 20.7133 17.2683C20.2289 16.7838 19.9264 16.2228 19.8703 15.6771C19.8129 15.1095 20.0118 14.5694 20.4553 14.1263C20.8522 13.7303 21.3148 13.5279 21.8149 13.5279H21.8153Z" fill="black"/>
</g>
<defs>
<filter id="filter0_d" x="0" y="0" width="40" height="40" filterUnits="userSpaceOnUse" color-interpolation-filters="sRGB">
<feFlood flood-opacity="0" result="BackgroundImageFix"/>
<feColorMatrix in="SourceAlpha" type="matrix" values="0 0 0 0 0 0 0 0 0 0 0 0 0 0 0 0 0 0 127 0" result="hardAlpha"/>
<feOffset dy="2"/>
<feGaussianBlur stdDeviation="2.5"/>
<feColorMatrix type="matrix" values="0 0 0 0 0 0 0 0 0 0 0 0 0 0 0 0 0 0 0.25 0"/>
<feBlend mode="normal" in2="BackgroundImageFix" result="effect1_dropShadow"/>
<feBlend mode="normal" in="SourceGraphic" in2="effect1_dropShadow" result="shape"/>
</filter>
<linearGradient id="paint0_linear" x1="20" y1="3" x2="20" y2="33" gradientUnits="userSpaceOnUse">
<stop stop-color="white"/>
<stop offset="1" stop-color="white" stop-opacity="0.8"/>
</linearGradient>
</defs>
</svg>
