<svg width="50" height="50" viewBox="0 0 50 50" fill="none" xmlns="http://www.w3.org/2000/svg">
<g filter="url(#filter0_d)">
<circle cx="25" cy="23" r="20" fill="url(#paint0_linear)"/>
<path d="M23.8372 9.66666H26.1628C26.3695 9.66666 26.4729 9.76542 26.4729 9.96295V36.037C26.4729 36.2346 26.3695 36.3333 26.1628 36.3333H23.8372C23.6305 36.3333 23.5271 36.2346 23.5271 36.037V9.96295C23.5271 9.76542 23.6305 9.66666 23.8372 9.66666Z" fill="white"/>
<path d="M11.9767 21.5926H38.0232C38.23 21.5926 38.3333 21.6914 38.3333 21.8889V24.1111C38.3333 24.3086 38.23 24.4074 38.0232 24.4074H11.9767C11.77 24.4074 11.6667 24.3086 11.6667 24.1111V21.8889C11.6667 21.6914 11.77 21.5926 11.9767 21.5926Z" fill="white"/>
</g>
<defs>
<filter id="filter0_d" x="0" y="0" width="50" height="50" filterUnits="userSpaceOnUse" color-interpolation-filters="sRGB">
<feFlood flood-opacity="0" result="BackgroundImageFix"/>
<feColorMatrix in="SourceAlpha" type="matrix" values="0 0 0 0 0 0 0 0 0 0 0 0 0 0 0 0 0 0 127 0" result="hardAlpha"/>
<feOffset dy="2"/>
<feGaussianBlur stdDeviation="2.5"/>
<feColorMatrix type="matrix" values="0 0 0 0 0 0 0 0 0 0 0 0 0 0 0 0 0 0 0.25 0"/>
<feBlend mode="normal" in2="BackgroundImageFix" result="effect1_dropShadow"/>
<feBlend mode="normal" in="SourceGraphic" in2="effect1_dropShadow" result="shape"/>
</filter>
<linearGradient id="paint0_linear" x1="25" y1="3" x2="25" y2="43" gradientUnits="userSpaceOnUse">
<stop stop-color="#F76425"/>
<stop offset="1" stop-color="#F76425" stop-opacity="0.8"/>
</linearGradient>
</defs>
</svg>
