<svg width="40" height="40" viewBox="0 0 40 40" fill="none" xmlns="http://www.w3.org/2000/svg">
<g filter="url(#filter0_d)">
<circle cx="20" cy="18" r="15" fill="url(#paint0_linear)"/>
<path d="M10 28H14.1661L26.4533 15.7128L22.2872 11.5467L10 23.8339V28ZM12.2219 24.756L22.2872 14.6907L23.3093 15.7128L13.244 25.7781H12.2219V24.756ZM27.0755 8.32489C26.9727 8.2219 26.8506 8.1402 26.7162 8.08445C26.5818 8.0287 26.4377 8 26.2922 8C26.1467 8 26.0027 8.0287 25.8683 8.08445C25.7339 8.1402 25.6118 8.2219 25.509 8.32489L23.4759 10.358L27.642 14.5241L29.6751 12.491C29.7781 12.3882 29.8598 12.2661 29.9156 12.1317C29.9713 11.9973 30 11.8533 30 11.7078C30 11.5623 29.9713 11.4182 29.9156 11.2838C29.8598 11.1494 29.7781 11.0273 29.6751 10.9245L27.0755 8.32489Z" fill="black"/>
</g>
<defs>
<filter id="filter0_d" x="0" y="0" width="40" height="40" filterUnits="userSpaceOnUse" color-interpolation-filters="sRGB">
<feFlood flood-opacity="0" result="BackgroundImageFix"/>
<feColorMatrix in="SourceAlpha" type="matrix" values="0 0 0 0 0 0 0 0 0 0 0 0 0 0 0 0 0 0 127 0" result="hardAlpha"/>
<feOffset dy="2"/>
<feGaussianBlur stdDeviation="2.5"/>
<feColorMatrix type="matrix" values="0 0 0 0 0 0 0 0 0 0 0 0 0 0 0 0 0 0 0.25 0"/>
<feBlend mode="normal" in2="BackgroundImageFix" result="effect1_dropShadow"/>
<feBlend mode="normal" in="SourceGraphic" in2="effect1_dropShadow" result="shape"/>
</filter>
<linearGradient id="paint0_linear" x1="20" y1="3" x2="20" y2="33" gradientUnits="userSpaceOnUse">
<stop stop-color="white"/>
<stop offset="1" stop-color="white" stop-opacity="0.8"/>
</linearGradient>
</defs>
</svg>
