<svg width="60" height="20" viewBox="0 0 60 20" fill="none" xmlns="http://www.w3.org/2000/svg">
<path d="M1.5 18.5V1.5H45.5108L57.4192 10.192L45.5279 18.5H1.5Z" fill="#E8CEB6" stroke="#F17D11" stroke-width="3"/>
<path d="M12.4297 6.89258H9.81641V14H8.05859V6.89258H5.48047V5.46875H12.4297V6.89258ZM16.5957 10.877H15.1953V14H13.4375V5.46875H16.6074C17.6152 5.46875 18.3926 5.69336 18.9395 6.14258C19.4863 6.5918 19.7598 7.22656 19.7598 8.04688C19.7598 8.62891 19.6328 9.11523 19.3789 9.50586C19.1289 9.89258 18.748 10.2012 18.2363 10.4316L20.082 13.918V14H18.1953L16.5957 10.877ZM15.1953 9.45312H16.6133C17.0547 9.45312 17.3965 9.3418 17.6387 9.11914C17.8809 8.89258 18.002 8.58203 18.002 8.1875C18.002 7.78516 17.8867 7.46875 17.6562 7.23828C17.4297 7.00781 17.0801 6.89258 16.6074 6.89258H15.1953V9.45312ZM25.918 12.2422H22.8359L22.25 14H20.3809L23.5566 5.46875H25.1855L28.3789 14H26.5098L25.918 12.2422ZM23.3105 10.8184H25.4434L24.3711 7.625L23.3105 10.8184ZM35.7441 11.1582C35.6777 12.0762 35.3379 12.7988 34.7246 13.3262C34.1152 13.8535 33.3105 14.1172 32.3105 14.1172C31.2168 14.1172 30.3555 13.75 29.7266 13.0156C29.1016 12.2773 28.7891 11.2656 28.7891 9.98047V9.45898C28.7891 8.63867 28.9336 7.91602 29.2227 7.29102C29.5117 6.66602 29.9238 6.1875 30.459 5.85547C30.998 5.51953 31.623 5.35156 32.334 5.35156C33.3184 5.35156 34.1113 5.61523 34.7129 6.14258C35.3145 6.66992 35.6621 7.41016 35.7559 8.36328H33.998C33.9551 7.8125 33.8008 7.41406 33.5352 7.16797C33.2734 6.91797 32.873 6.79297 32.334 6.79297C31.748 6.79297 31.3086 7.00391 31.0156 7.42578C30.7266 7.84375 30.5781 8.49414 30.5703 9.37695V10.0215C30.5703 10.9434 30.709 11.6172 30.9863 12.043C31.2676 12.4688 31.709 12.6816 32.3105 12.6816C32.8535 12.6816 33.2578 12.5586 33.5234 12.3125C33.793 12.0625 33.9473 11.6777 33.9863 11.1582H35.7441ZM39.5703 10.5781L38.6562 11.5625V14H36.8984V5.46875H38.6562V9.33594L39.4297 8.27539L41.6035 5.46875H43.7656L40.7363 9.25977L43.8535 14H41.7617L39.5703 10.5781Z" fill="#424242"/>
</svg>
